<?xml version="1.0" encoding="UTF-8"?>
<svg version="1.1" xmlns="http://www.w3.org/2000/svg" width="1200" height="334">
<path d="M0 0 C1.20459366 -0.00525696 2.40918732 -0.01051392 3.65028381 -0.01593018 C6.92517715 -0.02680238 10.19970123 -0.02435162 13.47458839 -0.01479292 C16.91987441 -0.00713835 20.36513771 -0.01425788 23.8104248 -0.01895142 C29.59355016 -0.02439224 35.37656017 -0.01726156 41.15966797 -0.00292969 C47.82284844 0.01339368 54.48575341 0.00810398 61.14892721 -0.0084089 C66.89448431 -0.02207174 72.63995902 -0.02392011 78.38552713 -0.0160929 C81.80629389 -0.01144261 85.22693162 -0.01071789 88.64768982 -0.02070236 C92.46453234 -0.02835602 96.28085243 -0.01665688 100.09765625 0 C101.21483536 -0.00607269 102.33201447 -0.01214539 103.48304749 -0.0184021 C115.6222427 0.0793 125.24370096 3.33890224 134.23632812 11.57568359 C140.34181639 17.94662787 143.65556164 25.89289958 143.69599915 34.65455627 C143.7067321 36.2544767 143.7067321 36.2544767 143.71768188 37.88671875 C143.72037079 39.05195068 143.72305969 40.21718262 143.72583008 41.41772461 C143.73240128 42.64909653 143.73897247 43.88046844 143.7457428 45.14915466 C143.76547561 49.23013554 143.7771445 53.31107711 143.78710938 57.39208984 C143.79115917 58.80094865 143.79527616 60.20980727 143.79945946 61.6186657 C143.81850567 68.24214681 143.8327352 74.86561685 143.84107143 81.48912007 C143.85082763 89.11349965 143.87710688 96.73758767 143.91757232 104.36186463 C143.94783237 110.2678032 143.96254981 116.1736587 143.96585244 122.07967323 C143.96819261 125.60069259 143.97701616 129.1214003 144.00231361 132.64233589 C144.03014275 136.57927667 144.02573307 140.51584094 144.01879883 144.45288086 C144.03801392 146.17947433 144.03801392 146.17947433 144.05761719 147.94094849 C143.98005253 160.07585143 140.25279876 169.28889283 131.95898438 178.07177734 C122.6816251 186.82523868 111.16855097 187.53678458 99.04248047 187.54931641 C97.89045135 187.55428131 96.73842224 187.55924622 95.55148315 187.56436157 C91.74590452 187.57894779 87.9403676 187.58577992 84.13476562 187.59130859 C82.15263921 187.5956082 80.17051281 187.59990835 78.18838656 187.60428309 C72.66453011 187.61607878 67.14068368 187.62362575 61.61681592 187.62707829 C54.50246855 187.63155085 47.38831409 187.64906728 40.27402532 187.67807889 C34.75528721 187.69979263 29.23660298 187.70978777 23.71782267 187.71111941 C20.43103194 187.71216086 17.14446263 187.71940405 13.85770798 187.73593903 C10.18217355 187.75310755 6.50710188 187.75109251 2.83154297 187.74462891 C1.76202393 187.75384369 0.69250488 187.76305847 -0.40942383 187.77255249 C-13.16718685 187.70272616 -23.65407738 184.8507966 -33.13867188 176.20068359 C-38.84600515 170.25826566 -42.55665583 162.36910299 -42.60507202 154.13490295 C-42.61367249 153.0458667 -42.62227295 151.95683044 -42.63113403 150.83479309 C-42.63539398 149.63948471 -42.63965393 148.44417633 -42.64404297 147.21264648 C-42.65222046 145.95376617 -42.66039795 144.69488586 -42.66882324 143.39785767 C-42.69502595 139.21887345 -42.71035705 135.03987936 -42.72460938 130.86083984 C-42.72997127 129.41888358 -42.73534879 127.97692738 -42.74074173 126.53497124 C-42.76237496 120.53088911 -42.78110633 114.52680964 -42.79236412 108.5226984 C-42.80856611 99.93964914 -42.84164661 91.35705525 -42.89876497 82.77417761 C-42.93761072 76.72896911 -42.95701447 70.6838816 -42.96228468 64.63855165 C-42.96592052 61.03413191 -42.97774934 57.43019802 -43.01038742 53.82591438 C-43.04638012 49.79309716 -43.04206037 45.76124284 -43.03466797 41.72827148 C-43.0510733 40.55118118 -43.06747864 39.37409088 -43.0843811 38.16133118 C-43.00398794 27.39117749 -39.89544 17.93077462 -32.32617188 10.06787109 C-22.89458438 1.61874063 -12.32451129 -0.06699281 0 0 Z M48.54882812 50.38818359 C48.54882812 50.71818359 48.54882812 51.04818359 48.54882812 51.38818359 C53.82882812 51.38818359 59.10882813 51.38818359 64.54882812 51.38818359 C64.54882812 57.65818359 64.54882812 63.92818359 64.54882812 70.38818359 C68.17882812 70.38818359 71.80882812 70.38818359 75.54882812 70.38818359 C75.54882812 77.64818359 75.54882812 84.90818359 75.54882812 92.38818359 C71.25882813 92.38818359 66.96882813 92.38818359 62.54882812 92.38818359 C62.54882812 97.00818359 62.54882812 101.62818359 62.54882812 106.38818359 C69.80882812 106.38818359 77.06882812 106.38818359 84.54882812 106.38818359 C84.54882812 113.97818359 84.54882812 121.56818359 84.54882812 129.38818359 C79.26882813 129.38818359 73.98882812 129.38818359 68.54882812 129.38818359 C68.54882812 133.34818359 68.54882812 137.30818359 68.54882812 141.38818359 C75.44557333 144.8365562 84.93621203 141.80308613 91.86132812 139.71240234 C104.72646287 135.09240163 114.66108849 125.63398527 120.54882812 113.38818359 C125.92762959 100.70958014 126.47777683 87.41743274 121.86523438 74.41552734 C116.19096662 61.36639526 107.33172926 52.76740561 94.60351562 46.57958984 C88.20488507 44.08396028 82.15784238 42.99810884 75.29882812 43.01318359 C74.56301514 43.01406982 73.82720215 43.01495605 73.0690918 43.01586914 C64.17353467 43.20661963 56.2778067 46.09430661 48.54882812 50.38818359 Z M-21.45117188 55.38818359 C-21.45117188 60.00818359 -21.45117188 64.62818359 -21.45117188 69.38818359 C-20.13117188 69.05818359 -18.81117188 68.72818359 -17.45117188 68.38818359 C-17.78117187 64.75818359 -18.11117187 61.12818359 -18.45117188 57.38818359 C-17.46117187 57.71818359 -16.47117188 58.04818359 -15.45117188 58.38818359 C-15.45117188 62.01818359 -15.45117188 65.64818359 -15.45117188 69.38818359 C-13.80117187 69.38818359 -12.15117187 69.38818359 -10.45117188 69.38818359 C-10.45117188 65.75818359 -10.45117188 62.12818359 -10.45117188 58.38818359 C-9.79117188 58.38818359 -9.13117188 58.38818359 -8.45117188 58.38818359 C-8.45117188 62.01818359 -8.45117188 65.64818359 -8.45117188 69.38818359 C-6.14117187 69.38818359 -3.83117187 69.38818359 -1.45117188 69.38818359 C-1.78117187 65.42818359 -2.11117187 61.46818359 -2.45117188 57.38818359 C-1.46117187 57.38818359 -0.47117187 57.38818359 0.54882812 57.38818359 C0.54882812 61.34818359 0.54882812 65.30818359 0.54882812 69.38818359 C2.85882813 69.38818359 5.16882813 69.38818359 7.54882812 69.38818359 C7.54882812 65.75818359 7.54882812 62.12818359 7.54882812 58.38818359 C8.20882812 58.38818359 8.86882812 58.38818359 9.54882812 58.38818359 C9.54882812 62.01818359 9.54882812 65.64818359 9.54882812 69.38818359 C12.51882812 69.38818359 15.48882812 69.38818359 18.54882812 69.38818359 C18.54882812 65.75818359 18.54882812 62.12818359 18.54882812 58.38818359 C19.20882812 58.38818359 19.86882812 58.38818359 20.54882812 58.38818359 C20.54882812 62.01818359 20.54882812 65.64818359 20.54882812 69.38818359 C23.51882812 69.38818359 26.48882812 69.38818359 29.54882812 69.38818359 C29.54882812 65.75818359 29.54882812 62.12818359 29.54882812 58.38818359 C30.53882813 58.05818359 31.52882812 57.72818359 32.54882812 57.38818359 C32.21882813 61.34818359 31.88882813 65.30818359 31.54882812 69.38818359 C33.85882813 69.38818359 36.16882813 69.38818359 38.54882812 69.38818359 C38.54882812 65.42818359 38.54882812 61.46818359 38.54882812 57.38818359 C39.53882813 57.38818359 40.52882813 57.38818359 41.54882812 57.38818359 C41.54882812 61.34818359 41.54882812 65.30818359 41.54882812 69.38818359 C43.52882813 69.38818359 45.50882812 69.38818359 47.54882812 69.38818359 C47.54882812 65.75818359 47.54882812 62.12818359 47.54882812 58.38818359 C48.53882813 58.05818359 49.52882813 57.72818359 50.54882812 57.38818359 C50.21882813 61.34818359 49.88882813 65.30818359 49.54882812 69.38818359 C51.19882812 69.38818359 52.84882813 69.38818359 54.54882812 69.38818359 C54.54882812 65.42818359 54.54882812 61.46818359 54.54882812 57.38818359 C55.53882813 57.38818359 56.52882813 57.38818359 57.54882812 57.38818359 C57.21882813 61.34818359 56.88882813 65.30818359 56.54882812 69.38818359 C57.86882812 69.38818359 59.18882812 69.38818359 60.54882812 69.38818359 C60.54882812 64.76818359 60.54882812 60.14818359 60.54882812 55.38818359 C33.48882812 55.38818359 6.42882812 55.38818359 -21.45117188 55.38818359 Z M-10.45117188 74.38818359 C-10.45117188 79.00818359 -10.45117188 83.62818359 -10.45117188 88.38818359 C16.60882813 88.38818359 43.66882813 88.38818359 71.54882812 88.38818359 C71.54882812 83.76818359 71.54882812 79.14818359 71.54882812 74.38818359 C44.48882812 74.38818359 17.42882812 74.38818359 -10.45117188 74.38818359 Z M-24.45117188 92.38818359 C-24.45117188 97.00818359 -24.45117188 101.62818359 -24.45117188 106.38818359 C2.93882812 106.38818359 30.32882813 106.38818359 58.54882812 106.38818359 C58.54882812 101.76818359 58.54882812 97.14818359 58.54882812 92.38818359 C31.15882813 92.38818359 3.76882812 92.38818359 -24.45117188 92.38818359 Z M-2.45117188 110.38818359 C-2.45117188 115.00818359 -2.45117188 119.62818359 -2.45117188 124.38818359 C-0.80117187 124.38818359 0.84882813 124.38818359 2.54882812 124.38818359 C2.21882813 123.72818359 1.88882813 123.06818359 1.54882812 122.38818359 C1.47932271 120.84794363 1.46430455 119.30483372 1.48632812 117.76318359 C1.49535156 116.94591797 1.504375 116.12865234 1.51367188 115.28662109 C1.52527344 114.66013672 1.536875 114.03365234 1.54882812 113.38818359 C2.53882813 113.05818359 3.52882813 112.72818359 4.54882812 112.38818359 C4.21882813 116.34818359 3.88882813 120.30818359 3.54882812 124.38818359 C5.52882813 124.38818359 7.50882813 124.38818359 9.54882812 124.38818359 C9.21882813 120.42818359 8.88882813 116.46818359 8.54882812 112.38818359 C9.53882813 112.38818359 10.52882813 112.38818359 11.54882812 112.38818359 C11.21882813 116.34818359 10.88882813 120.30818359 10.54882812 124.38818359 C13.18882812 124.38818359 15.82882813 124.38818359 18.54882812 124.38818359 C17.88882813 124.05818359 17.22882813 123.72818359 16.54882812 123.38818359 C16.87882812 120.08818359 17.20882812 116.78818359 17.54882812 113.38818359 C18.53882813 113.05818359 19.52882813 112.72818359 20.54882812 112.38818359 C20.21882813 116.34818359 19.88882813 120.30818359 19.54882812 124.38818359 C22.18882812 124.38818359 24.82882813 124.38818359 27.54882812 124.38818359 C27.21882813 120.42818359 26.88882813 116.46818359 26.54882812 112.38818359 C27.53882813 112.38818359 28.52882813 112.38818359 29.54882812 112.38818359 C29.21882813 116.34818359 28.88882813 120.30818359 28.54882812 124.38818359 C31.84882813 124.38818359 35.14882812 124.38818359 38.54882812 124.38818359 C38.05382812 118.44818359 38.05382812 118.44818359 37.54882812 112.38818359 C38.53882813 112.38818359 39.52882813 112.38818359 40.54882812 112.38818359 C40.21882813 116.34818359 39.88882813 120.30818359 39.54882812 124.38818359 C42.84882813 124.38818359 46.14882813 124.38818359 49.54882812 124.38818359 C49.05382812 118.44818359 49.05382812 118.44818359 48.54882812 112.38818359 C49.53882813 112.71818359 50.52882813 113.04818359 51.54882812 113.38818359 C52.04382813 118.33818359 52.04382813 118.33818359 52.54882812 123.38818359 C51.88882813 123.71818359 51.22882813 124.04818359 50.54882812 124.38818359 C53.18882812 124.38818359 55.82882812 124.38818359 58.54882812 124.38818359 C58.54882812 120.75818359 58.54882812 117.12818359 58.54882812 113.38818359 C59.53882813 113.05818359 60.52882813 112.72818359 61.54882812 112.38818359 C61.21882813 116.34818359 60.88882813 120.30818359 60.54882812 124.38818359 C62.85882813 124.38818359 65.16882813 124.38818359 67.54882812 124.38818359 C67.05382812 118.44818359 67.05382812 118.44818359 66.54882812 112.38818359 C67.53882813 112.38818359 68.52882813 112.38818359 69.54882812 112.38818359 C69.21882813 116.34818359 68.88882813 120.30818359 68.54882812 124.38818359 C70.52882813 124.38818359 72.50882812 124.38818359 74.54882812 124.38818359 C74.05382812 118.44818359 74.05382812 118.44818359 73.54882812 112.38818359 C74.53882813 112.71818359 75.52882813 113.04818359 76.54882812 113.38818359 C76.54882812 117.01818359 76.54882812 120.64818359 76.54882812 124.38818359 C77.53882813 124.38818359 78.52882813 124.38818359 79.54882812 124.38818359 C79.54882812 119.76818359 79.54882812 115.14818359 79.54882812 110.38818359 C52.48882812 110.38818359 25.42882812 110.38818359 -2.45117188 110.38818359 Z M-17.45117188 129.38818359 C-17.45117188 134.00818359 -17.45117188 138.62818359 -17.45117188 143.38818359 C9.60882813 143.38818359 36.66882813 143.38818359 64.54882812 143.38818359 C64.54882812 138.76818359 64.54882812 134.14818359 64.54882812 129.38818359 C37.48882812 129.38818359 10.42882812 129.38818359 -17.45117188 129.38818359 Z " fill="#090909" transform="translate(217.451171875,95.61181640625)"/>
<path d="M0 0 C11.55 0 23.1 0 35 0 C35.33 15.51 35.66 31.02 36 47 C37.65 45.02 39.3 43.04 41 41 C43.53515625 39.35546875 43.53515625 39.35546875 46.0625 38.1875 C46.89910156 37.78917969 47.73570312 37.39085937 48.59765625 36.98046875 C57.02890404 33.5394229 68.99938363 33.40548199 77.5625 36.625 C89.73499225 42.54619538 97.53259485 52.28379059 102 65 C106.48546274 80.8769914 105.26622356 97.83511263 97.25 112.3125 C90.43488622 122.77251295 81.34619451 129.40230202 69.125 132.4375 C58.39621306 134.1106388 46.8417107 132.89946682 37.8671875 126.47265625 C33.37791451 122.75582902 33.37791451 122.75582902 32 120 C31.67 123.63 31.34 127.26 31 131 C20.77 131 10.54 131 0 131 C0 87.77 0 44.54 0 0 Z M36.78125 72.62109375 C34.46767232 77.00978824 34.23330584 80.53895653 34.25 85.4375 C34.24959717 86.28554199 34.24919434 87.13358398 34.2487793 88.00732422 C34.39054389 91.91820278 34.62133714 94.38172138 36.69140625 97.76171875 C41.90489413 102.34152302 46.71180521 103.30960312 53.5 103.2109375 C58.5526531 102.78461989 61.23860593 100.76139407 64.75 97.25 C68.83952909 91.34290243 69.38904505 86.31129002 68.47265625 79.359375 C67.16507359 72.83226817 63.49610658 68.53166338 58.1875 64.6875 C49.15435887 61.84851279 42.60927863 65.7362219 36.78125 72.62109375 Z " fill="#050505" transform="translate(737,116)"/>
<path d="M0 0 C11.55 0 23.1 0 35 0 C35.33 22.44 35.66 44.88 36 68 C44.68861992 55.7573391 44.68861992 55.7573391 52.5546875 42.9921875 C55.4133978 38.99639915 57.42143708 36.77504413 62.24707031 35.91113281 C67.23424528 35.45653743 72.14146446 35.77269594 77.125 36.125 C78.86172679 36.19533776 80.5987287 36.2591967 82.3359375 36.31640625 C86.56416349 36.46964577 90.77901327 36.71036813 95 37 C92.61221744 41.06722977 89.94120356 44.75814052 87 48.4375 C86.01811323 49.67568932 85.03634597 50.91397342 84.0546875 52.15234375 C83.55163086 52.7851123 83.04857422 53.41788086 82.53027344 54.06982422 C81.01584871 55.98000959 79.51017368 57.89672252 78.0078125 59.81640625 C77.52441406 60.43394775 77.04101562 61.05148926 76.54296875 61.68774414 C75.62591187 62.85980221 74.70922028 64.03214623 73.79296875 65.20483398 C73.36886719 65.74567627 72.94476562 66.28651855 72.5078125 66.84375 C71.89534668 67.63265625 71.89534668 67.63265625 71.27050781 68.4375 C70.39700863 69.51174957 69.48147468 70.55272519 68.53417969 71.5625 C65.72977818 74.44395346 65.72977818 74.44395346 65.08276367 78.23291016 C66.31705632 81.95648558 68.36018678 84.97138196 70.55859375 88.1796875 C71.02177505 88.86950714 71.48495636 89.55932678 71.96217346 90.27005005 C73.44641474 92.47689086 74.94164315 94.67602039 76.4375 96.875 C77.40895332 98.31459821 78.37966337 99.75469828 79.34960938 101.1953125 C82.71944207 106.19605714 86.0924546 111.19468922 89.48321533 116.18127441 C90.9004724 118.26653838 92.31203824 120.3555539 93.72265625 122.4453125 C94.37106728 123.39408768 94.37106728 123.39408768 95.03257751 124.36203003 C98 128.77272822 98 128.77272822 98 131 C93.00158699 131.24837309 88.00680265 131.42915259 83.00366211 131.54931641 C81.30478335 131.59942129 79.60633199 131.66753346 77.90893555 131.75439453 C63.90074879 132.45295474 63.90074879 132.45295474 59.50976562 129.09643555 C57.65627463 126.48682081 56.3331951 123.90707496 55 121 C53.92740584 119.23986211 52.83626447 117.49088788 51.7265625 115.75390625 C50.68887766 114.02573187 49.65500823 112.29526068 48.625 110.5625 C48.09261719 109.67884766 47.56023438 108.79519531 47.01171875 107.88476562 C43.13040808 101.39122423 43.13040808 101.39122423 42 98 C39.14678314 99.55526808 37.81835699 100.37695314 36 103 C35.07654762 107.76351348 35.1167391 112.47188534 35.125 117.3125 C35.08375 121.829375 35.0425 126.34625 35 131 C23.45 131 11.9 131 0 131 C0 87.77 0 44.54 0 0 Z " fill="#0A0A0A" transform="translate(520,116)"/>
<path d="M0 0 C11.22 0 22.44 0 34 0 C34.05607422 6.05021484 34.05607422 6.05021484 34.11328125 12.22265625 C34.15142757 15.45279431 34.19250002 18.68286588 34.2355423 21.91294098 C34.28007651 25.31490299 34.31953701 28.71674544 34.34643555 32.11889648 C34.37758682 36.02873986 34.43237176 39.93808551 34.48828125 43.84765625 C34.49467117 45.05833267 34.5010611 46.26900909 34.50764465 47.51637268 C34.67101837 57.66781523 34.67101837 57.66781523 40 66 C45.6134052 66.8644644 50.20469717 66.12252277 55 63 C57.66083468 60.82717401 58.86689963 59.69781036 59.51898193 56.27911377 C59.5323056 54.72024445 59.5323056 54.72024445 59.54589844 53.12988281 C59.56561707 51.94896057 59.58533569 50.76803833 59.60565186 49.55133057 C59.60688049 48.28142273 59.60810913 47.01151489 59.609375 45.703125 C59.62591125 44.39921814 59.64244751 43.09531128 59.65948486 41.75189209 C59.70312939 38.29298021 59.72315054 34.83432178 59.73822021 31.37518311 C59.75780215 27.84241933 59.7995551 24.30992207 59.83984375 20.77734375 C59.91720594 13.85139229 59.9576095 6.92660756 60 0 C71.55 0 83.1 0 95 0 C95.06058594 4.45242187 95.12117187 8.90484375 95.18359375 13.4921875 C95.23454203 17.03669077 95.28646244 20.58117683 95.33904266 24.12565613 C95.39432551 27.87036221 95.44788504 31.61507498 95.49731445 35.35986328 C95.54496587 38.96496615 95.59730892 42.56997285 95.65294075 46.17496109 C95.67336079 47.55208067 95.69207447 48.92922662 95.70907402 50.30639267 C95.73312547 52.231504 95.76374251 54.15652995 95.79467773 56.08154297 C95.81799416 57.72701614 95.81799416 57.72701614 95.84178162 59.4057312 C95.82896195 61.98453752 95.82896195 61.98453752 97 64 C98.98 64.495 98.98 64.495 101 65 C101 74.9 101 84.8 101 95 C79.08711217 98.65214797 79.08711217 98.65214797 70.625 92.67578125 C67.68557389 89.64449808 66.31073161 85.95806452 65 82 C64.278125 82.7425 63.55625 83.485 62.8125 84.25 C53.36979199 93.48287006 43.10467533 96.68587311 30 97.3125 C21.59230425 96.99721141 13.79113698 95.08685004 7.6875 89.09765625 C1.71224176 81.6700783 -0.12992757 74.18864235 -0.11352539 64.82299805 C-0.11367142 64.12001083 -0.11381744 63.41702362 -0.1139679 62.69273376 C-0.11327441 60.38236341 -0.10550857 58.07207492 -0.09765625 55.76171875 C-0.09579006 54.15460759 -0.09436711 52.54749585 -0.09336853 50.94038391 C-0.08955915 46.72031063 -0.07974239 42.50027203 -0.06866455 38.2802124 C-0.0566131 33.21156277 -0.05204067 28.14290151 -0.04621124 23.07424164 C-0.03652976 15.38280368 -0.01736217 7.69144173 0 0 Z " fill="#090909" transform="translate(623,152)"/>
<path d="M0 0 C12.88946365 13.63632977 12.71484375 26.86491157 12.71484375 45.8984375 C-9.06515625 45.8984375 -30.84515625 45.8984375 -53.28515625 45.8984375 C-50.5100904 52.37359114 -49.2992717 54.89137978 -43.28515625 57.8984375 C-36.83142387 58.40082385 -30.72573121 58.84285435 -25.28515625 54.8984375 C-22.94189961 52.34703897 -22.94189961 52.34703897 -21.28515625 49.8984375 C-14.25251292 51.16866729 -7.48391153 52.91060068 -0.66015625 55.0234375 C0.70302734 55.43916016 0.70302734 55.43916016 2.09375 55.86328125 C4.30212334 56.53741627 6.50907538 57.21583727 8.71484375 57.8984375 C5.55914467 67.16727091 -2.74614344 74.4692585 -11.28515625 78.8984375 C-26.29312485 85.24874802 -45.01736499 87.09333127 -60.53125 81.2265625 C-74.54182284 74.46969049 -82.39259321 66.12021803 -88.28515625 51.8984375 C-89.37688731 48.5507843 -89.98020923 45.402556 -90.28515625 41.8984375 C-90.36636719 41.00125 -90.44757812 40.1040625 -90.53125 39.1796875 C-91.16958052 24.78823575 -86.95309846 11.34791997 -77.25390625 0.66015625 C-56.71798218 -19.09450984 -20.90513668 -19.22557869 0 0 Z M-50.53515625 16.2109375 C-52.69132001 19.27468624 -52.69132001 19.27468624 -54.28515625 24.8984375 C-44.38515625 24.8984375 -34.48515625 24.8984375 -24.28515625 24.8984375 C-25.30645082 18.43776501 -25.30645082 18.43776501 -29.28515625 13.8984375 C-37.2606525 9.61530063 -43.97119391 9.46464287 -50.53515625 16.2109375 Z " fill="#090909" transform="translate(937.28515625,164.1015625)"/>
<path d="M0 0 C0 10.56 0 21.12 0 32 C-3.650625 32.37125 -3.650625 32.37125 -7.375 32.75 C-19.44993892 34.14303629 -19.44993892 34.14303629 -29 41 C-29.47302984 43.55982961 -29.47302984 43.55982961 -29.43237305 46.48120117 C-29.45216721 47.60213669 -29.47196136 48.7230722 -29.49235535 49.87797546 C-29.50194023 51.69214714 -29.50194023 51.69214714 -29.51171875 53.54296875 C-29.52966995 54.78170242 -29.54762115 56.0204361 -29.56611633 57.29670715 C-29.61115077 60.5862946 -29.6434265 63.87568459 -29.66955566 67.16546631 C-29.69935939 70.52385921 -29.74572876 73.88202044 -29.79101562 77.24023438 C-29.87861975 83.82684196 -29.93855701 90.41288805 -30 97 C-41.22 97 -52.44 97 -64 97 C-64 65.65 -64 34.3 -64 2 C-53.44 2 -42.88 2 -32 2 C-31.505 8.435 -31.505 8.435 -31 15 C-30.154375 13.948125 -29.30875 12.89625 -28.4375 11.8125 C-20.47535857 2.53585409 -12.09821448 0 0 0 Z " fill="#080808" transform="translate(1025,150)"/>
<path d="M0 0 C2.475 0.495 2.475 0.495 5 1 C5 78.55 5 156.1 5 236 C3.35 236 1.7 236 0 236 C0 158.12 0 80.24 0 0 Z " fill="#525252" transform="translate(431,63)"/>
<path d="M0 0 C0.33 0 0.66 0 1 0 C1 4.62 1 9.24 1 14 C1.99 13.67 2.98 13.34 4 13 C4 9.37 4 5.74 4 2 C5.32 2.33 6.64 2.66 8 3 C8.0270043 4.45823212 8.04639787 5.91660675 8.0625 7.375 C8.07410156 8.18710938 8.08570313 8.99921875 8.09765625 9.8359375 C8 12 8 12 7 14 C8.32 13.67 9.64 13.34 11 13 C11 9.7 11 6.4 11 3 C12.32 3 13.64 3 15 3 C15 6.3 15 9.6 15 13 C16.65 13 18.3 13 20 13 C20 9.37 20 5.74 20 2 C20.99 2 21.98 2 23 2 C24.12256131 4.24512262 24.13413762 5.51456649 24.125 8 C24.12886719 9.051875 24.12886719 9.051875 24.1328125 10.125 C24 12 24 12 23 14 C24.98 13.67 26.96 13.34 29 13 C29 9.7 29 6.4 29 3 C30.32 3 31.64 3 33 3 C33 6.3 33 9.6 33 13 C35.31 13 37.62 13 40 13 C40 9.7 40 6.4 40 3 C41.32 3 42.64 3 44 3 C44 6.3 44 9.6 44 13 C46.31 13 48.62 13 51 13 C51 9.7 51 6.4 51 3 C52.32 2.67 53.64 2.34 55 2 C55 5.63 55 9.26 55 13 C56.98 13.33 58.96 13.66 61 14 C61 10.04 61 6.08 61 2 C61.99 2 62.98 2 64 2 C64 5.96 64 9.92 64 14 C66.475 13.505 66.475 13.505 69 13 C69 9.7 69 6.4 69 3 C70.32 2.67 71.64 2.34 73 2 C73 5.63 73 9.26 73 13 C74.32 13.33 75.64 13.66 77 14 C77 10.04 77 6.08 77 2 C77.99 2 78.98 2 80 2 C79.96519531 2.77085937 79.93039062 3.54171875 79.89453125 4.3359375 C79.85392578 5.84027344 79.85392578 5.84027344 79.8125 7.375 C79.77769531 8.37273437 79.74289062 9.37046875 79.70703125 10.3984375 C79.85205078 11.68621094 79.85205078 11.68621094 80 13 C80.99 13.66 81.98 14.32 83 15 C55.61 15 28.22 15 0 15 C0 10.05 0 5.1 0 0 Z " fill="#C4C4C4" transform="translate(195,151)"/>
<path d="M0 0 C0.33 0 0.66 0 1 0 C1 4.95 1 9.9 1 15 C-26.39 15 -53.78 15 -82 15 C-80.68 14.34 -79.36 13.68 -78 13 C-78.33 12.67 -78.66 12.34 -79 12 C-79.07179964 10.48071962 -79.08392007 8.95832518 -79.0625 7.4375 C-79.05347656 6.61121094 -79.04445312 5.78492188 -79.03515625 4.93359375 C-79.02355469 4.29550781 -79.01195312 3.65742188 -79 3 C-77.68 2.67 -76.36 2.34 -75 2 C-75 5.63 -75 9.26 -75 13 C-73.68 13 -72.36 13 -71 13 C-71 9.37 -71 5.74 -71 2 C-70.01 2 -69.02 2 -68 2 C-68 5.63 -68 9.26 -68 13 C-66.35 13 -64.7 13 -63 13 C-63 9.7 -63 6.4 -63 3 C-61.68 2.67 -60.36 2.34 -59 2 C-59 5.63 -59 9.26 -59 13 C-57.02 13 -55.04 13 -53 13 C-53 9.37 -53 5.74 -53 2 C-52.01 2 -51.02 2 -50 2 C-50 5.63 -50 9.26 -50 13 C-47.36 13 -44.72 13 -42 13 C-42 9.37 -42 5.74 -42 2 C-41.01 2 -40.02 2 -39 2 C-39 5.63 -39 9.26 -39 13 C-36.36 13 -33.72 13 -31 13 C-31 9.37 -31 5.74 -31 2 C-29.68 2.33 -28.36 2.66 -27 3 C-27 6.3 -27 9.6 -27 13 C-25.35 13 -23.7 13 -22 13 C-22 9.7 -22 6.4 -22 3 C-20.68 2.67 -19.36 2.34 -18 2 C-18 5.63 -18 9.26 -18 13 C-16.35 13 -14.7 13 -13 13 C-13 9.37 -13 5.74 -13 2 C-12.01 2 -11.02 2 -10 2 C-10 5.63 -10 9.26 -10 13 C-8.68 13 -7.36 13 -6 13 C-6 9.37 -6 5.74 -6 2 C-4.68 2.33 -3.36 2.66 -2 3 C-2 6.3 -2 9.6 -2 13 C-1.01 13.495 -1.01 13.495 0 14 C0 9.38 0 4.76 0 0 Z " fill="#C3C3C3" transform="translate(297,206)"/>
<path d="M0 0 C11.55 0 23.1 0 35 0 C35.33 15.51 35.66 31.02 36 47 C37.65 45.02 39.3 43.04 41 41 C43.8125 39.625 43.8125 39.625 46 39 C42.62962667 43.12320587 39.36744335 46.8803976 35 50 C34.67 50 34.34 50 34 50 C34 33.83 34 17.66 34 1 C23.11 1 12.22 1 1 1 C1 43.57 1 86.14 1 130 C10.57 130 20.14 130 30 130 C30 125.71 30 121.42 30 117 C30.66 117.66 31.32 118.32 32 119 C31.67 122.96 31.34 126.92 31 131 C20.77 131 10.54 131 0 131 C0 87.77 0 44.54 0 0 Z " fill="#AEAEAE" transform="translate(737,116)"/>
<path d="M0 0 C0.99 0 1.98 0 3 0 C3 3.63 3 7.26 3 11 C4.32 11 5.64 11 7 11 C7 7.37 7 3.74 7 0 C7.99 0 8.98 0 10 0 C10 3.63 10 7.26 10 11 C11.65 11 13.3 11 15 11 C15 7.7 15 4.4 15 1 C16.32 0.67 17.64 0.34 19 0 C19 3.63 19 7.26 19 11 C20.98 11 22.96 11 25 11 C25 7.37 25 3.74 25 0 C25.99 0 26.98 0 28 0 C28.02696365 1.79158489 28.04637917 3.58328473 28.0625 5.375 C28.07410156 6.37273437 28.08570313 7.37046875 28.09765625 8.3984375 C28 11 28 11 27 13 C16.77 13 6.54 13 -4 13 C-2.68 12.34 -1.36 11.68 0 11 C-0.33 10.67 -0.66 10.34 -1 10 C-1.0979057 8.50261876 -1.12974864 7.00057108 -1.125 5.5 C-1.12757813 4.6853125 -1.13015625 3.870625 -1.1328125 3.03125 C-1 1 -1 1 0 0 Z " fill="#C4C4C4" transform="translate(219,208)"/>
<path d="M0 0 C0.33 0 0.66 0 1 0 C1 4.62 1 9.24 1 14 C1.99 13.67 2.98 13.34 4 13 C4 9.37 4 5.74 4 2 C5.32 2.33 6.64 2.66 8 3 C8.0270043 4.45823212 8.04639787 5.91660675 8.0625 7.375 C8.07410156 8.18710938 8.08570313 8.99921875 8.09765625 9.8359375 C8 12 8 12 7 14 C8.32 13.67 9.64 13.34 11 13 C11 9.7 11 6.4 11 3 C12.32 3 13.64 3 15 3 C15 6.3 15 9.6 15 13 C16.65 13 18.3 13 20 13 C20 9.37 20 5.74 20 2 C20.99 2 21.98 2 23 2 C24.57170996 5.14341993 24.23175783 8.55771451 24 12 C23.67 12.99 23.34 13.98 23 15 C15.41 15 7.82 15 0 15 C0 10.05 0 5.1 0 0 Z " fill="#C1C1C1" transform="translate(195,151)"/>
<path d="M0 0 C11.22 0 22.44 0 34 0 C34.33 15.51 34.66 31.02 35 47 C36.65 45.02 38.3 43.04 40 41 C42.8125 39.625 42.8125 39.625 45 39 C41.62962667 43.12320587 38.36744335 46.8803976 34 50 C33.67 50 33.34 50 33 50 C33 33.83 33 17.66 33 1 C22.11 1 11.22 1 0 1 C0 0.67 0 0.34 0 0 Z " fill="#777777" transform="translate(738,116)"/>
<path d="M0 0 C0.99 0.33 1.98 0.66 3 1 C3 4.63 3 8.26 3 12 C1.68 11.67 0.36 11.34 -1 11 C-1.02688151 9.35425434 -1.04634123 7.70838587 -1.0625 6.0625 C-1.07410156 5.14597656 -1.08570313 4.22945312 -1.09765625 3.28515625 C-1 1 -1 1 0 0 Z " fill="#5F5F5F" transform="translate(229,226)"/>
<path d="M0 0 C0.99 0.33 1.98 0.66 3 1 C3 4.63 3 8.26 3 12 C1.68 11.67 0.36 11.34 -1 11 C-1.02688151 9.35425434 -1.04634123 7.70838587 -1.0625 6.0625 C-1.07410156 5.14597656 -1.08570313 4.22945312 -1.09765625 3.28515625 C-1 1 -1 1 0 0 Z " fill="#606060" transform="translate(211,171)"/>
<path d="M0 0 C0.99 0.33 1.98 0.66 3 1 C3 4.3 3 7.6 3 11 C1.68 11.33 0.36 11.66 -1 12 C-1.02687279 10.18757948 -1.04633715 8.37504767 -1.0625 6.5625 C-1.07410156 5.55316406 -1.08570313 4.54382813 -1.09765625 3.50390625 C-1 1 -1 1 0 0 Z " fill="#5F5F5F" transform="translate(284,171)"/>
<path d="M0 0 C0.99 0.33 1.98 0.66 3 1 C3 4.3 3 7.6 3 11 C1.68 11.33 0.36 11.66 -1 12 C-1.02687279 10.18757948 -1.04633715 8.37504767 -1.0625 6.5625 C-1.07410156 5.55316406 -1.08570313 4.54382813 -1.09765625 3.50390625 C-1 1 -1 1 0 0 Z " fill="#606060" transform="translate(268,171)"/>
<path d="M0 0 C0.99 0.33 1.98 0.66 3 1 C3 4.63 3 8.26 3 12 C1.68 11.67 0.36 11.34 -1 11 C-1.02688151 9.35425434 -1.04634123 7.70838587 -1.0625 6.0625 C-1.07410156 5.14597656 -1.08570313 4.22945312 -1.09765625 3.28515625 C-1 1 -1 1 0 0 Z " fill="#5F5F5F" transform="translate(227,171)"/>
<path d="M0 0 C0.99 0.33 1.98 0.66 3 1 C3 4.63 3 8.26 3 12 C1.68 11.67 0.36 11.34 -1 11 C-1.0270043 9.54176788 -1.04639787 8.08339325 -1.0625 6.625 C-1.07410156 5.81289062 -1.08570313 5.00078125 -1.09765625 4.1640625 C-1 2 -1 2 0 0 Z " fill="#4F4F4F" transform="translate(211,226)"/>
<path d="M0 0 C0.66 0 1.32 0 2 0 C3.20272819 2.40545638 3.10071472 3.94996953 3.0625 6.625 C3.05347656 7.44226563 3.04445313 8.25953125 3.03515625 9.1015625 C3.02355469 9.72804687 3.01195312 10.35453125 3 11 C1.68 11.33 0.36 11.66 -1 12 C-1.02687279 10.18757948 -1.04633715 8.37504767 -1.0625 6.5625 C-1.07410156 5.55316406 -1.08570313 4.54382813 -1.09765625 3.50390625 C-1 1 -1 1 0 0 Z " fill="#4F4F4F" transform="translate(261,226)"/>
<path d="M0 0 C0.99 0.33 1.98 0.66 3 1 C3 4.3 3 7.6 3 11 C1.68 11 0.36 11 -1 11 C-1.02688151 9.35425434 -1.04634123 7.70838587 -1.0625 6.0625 C-1.07410156 5.14597656 -1.08570313 4.22945312 -1.09765625 3.28515625 C-1 1 -1 1 0 0 Z " fill="#5B5B5B" transform="translate(220,226)"/>
<path d="M0 0 C0.99 0.33 1.98 0.66 3 1 C3 4.3 3 7.6 3 11 C1.68 11 0.36 11 -1 11 C-1.02688151 9.35425434 -1.04634123 7.70838587 -1.0625 6.0625 C-1.07410156 5.14597656 -1.08570313 4.22945312 -1.09765625 3.28515625 C-1 1 -1 1 0 0 Z " fill="#4F4F4F" transform="translate(204,226)"/>
<path d="M0 0 C1.32 0 2.64 0 4 0 C4 3.63 4 7.26 4 11 C2.68 11 1.36 11 0 11 C0 7.37 0 3.74 0 0 Z " fill="#505050" transform="translate(244,190)"/>
<path d="M0 0 C0.99 0.33 1.98 0.66 3 1 C3 4.63 3 8.26 3 12 C2.01 12 1.02 12 0 12 C-1.12256131 9.75487738 -1.13413762 8.48543351 -1.125 6 C-1.12886719 4.948125 -1.12886719 4.948125 -1.1328125 3.875 C-1 2 -1 2 0 0 Z " fill="#4C4C4C" transform="translate(240,226)"/>
<path d="M0 0 C0.66 0 1.32 0 2 0 C3.12256131 2.24512262 3.13413762 3.51456649 3.125 6 C3.12757813 6.70125 3.13015625 7.4025 3.1328125 8.125 C3 10 3 10 2 12 C1.01 12 0.02 12 -1 12 C-1.02687279 10.18757948 -1.04633715 8.37504767 -1.0625 6.5625 C-1.07410156 5.55316406 -1.08570313 4.54382813 -1.09765625 3.50390625 C-1 1 -1 1 0 0 Z " fill="#4B4B4B" transform="translate(277,226)"/>
<path d="M0 0 C1.32 0.33 2.64 0.66 4 1 C4 4.3 4 7.6 4 11 C2.68 11 1.36 11 0 11 C0 7.37 0 3.74 0 0 Z " fill="#4D4D4D" transform="translate(291,208)"/>
<path d="M0 0 C0.99 0 1.98 0 3 0 C3 3.63 3 7.26 3 11 C1.68 11 0.36 11 -1 11 C-1.02688151 9.35425434 -1.04634123 7.70838587 -1.0625 6.0625 C-1.07410156 5.14597656 -1.08570313 4.22945312 -1.09765625 3.28515625 C-1 1 -1 1 0 0 Z " fill="#4D4D4D" transform="translate(276,208)"/>
<path d="M0 0 C1.32 0.33 2.64 0.66 4 1 C4 4.3 4 7.6 4 11 C2.68 11 1.36 11 0 11 C0 7.37 0 3.74 0 0 Z " fill="#4C4C4C" transform="translate(266,208)"/>
<path d="M0 0 C0.99 0 1.98 0 3 0 C3 3.63 3 7.26 3 11 C1.68 11 0.36 11 -1 11 C-1.02688151 9.35425434 -1.04634123 7.70838587 -1.0625 6.0625 C-1.07410156 5.14597656 -1.08570313 4.22945312 -1.09765625 3.28515625 C-1 1 -1 1 0 0 Z " fill="#4D4D4D" transform="translate(235,208)"/>
<path d="M0 0 C1.32 0 2.64 0 4 0 C4 3.63 4 7.26 4 11 C2.68 10.67 1.36 10.34 0 10 C0 6.7 0 3.4 0 0 Z " fill="#585858" transform="translate(269,190)"/>
<path d="M0 0 C1.32 0 2.64 0 4 0 C4 3.3 4 6.6 4 10 C2.68 10.33 1.36 10.66 0 11 C0 7.37 0 3.74 0 0 Z " fill="#4C4C4C" transform="translate(262,190)"/>
<path d="M0 0 C0.99 0 1.98 0 3 0 C3 3.63 3 7.26 3 11 C1.68 11 0.36 11 -1 11 C-1.02688151 9.35425434 -1.04634123 7.70838587 -1.0625 6.0625 C-1.07410156 5.14597656 -1.08570313 4.22945312 -1.09765625 3.28515625 C-1 1 -1 1 0 0 Z " fill="#5A5A5A" transform="translate(265,153)"/>
<path d="M0 0 C0.99 0 1.98 0 3 0 C3 3.63 3 7.26 3 11 C1.68 11 0.36 11 -1 11 C-1.02688151 9.35425434 -1.04634123 7.70838587 -1.0625 6.0625 C-1.07410156 5.14597656 -1.08570313 4.22945312 -1.09765625 3.28515625 C-1 1 -1 1 0 0 Z " fill="#4D4D4D" transform="translate(247,153)"/>
<path d="M0 0 C0.99 0 1.98 0 3 0 C3 3.63 3 7.26 3 11 C1.68 10.67 0.36 10.34 -1 10 C-1.02689216 8.52093108 -1.04634621 7.04172517 -1.0625 5.5625 C-1.07410156 4.73878906 -1.08570313 3.91507813 -1.09765625 3.06640625 C-1 1 -1 1 0 0 Z " fill="#484848" transform="translate(219,208)"/>
<path d="M0 0 C0.99 0 1.98 0 3 0 C3 3.63 3 7.26 3 11 C1.68 10.67 0.36 10.34 -1 10 C-1.02689216 8.52093108 -1.04634621 7.04172517 -1.0625 5.5625 C-1.07410156 4.73878906 -1.08570313 3.91507813 -1.09765625 3.06640625 C-1 1 -1 1 0 0 Z " fill="#484848" transform="translate(254,190)"/>
<path d="M0 0 C1.32 0.33 2.64 0.66 4 1 C4 3.97 4 6.94 4 10 C2.68 10.33 1.36 10.66 0 11 C0 7.37 0 3.74 0 0 Z " fill="#484848" transform="translate(233,190)"/>
<path d="M0 0 C1.32 0.33 2.64 0.66 4 1 C4 3.97 4 6.94 4 10 C2.68 10.33 1.36 10.66 0 11 C0 7.37 0 3.74 0 0 Z " fill="#474747" transform="translate(204,190)"/>
<path d="M0 0 C0.99 0.33 1.98 0.66 3 1 C3 4.3 3 7.6 3 11 C1.68 11 0.36 11 -1 11 C-1.02688151 9.35425434 -1.04634123 7.70838587 -1.0625 6.0625 C-1.07410156 5.14597656 -1.08570313 4.22945312 -1.09765625 3.28515625 C-1 1 -1 1 0 0 Z " fill="#565656" transform="translate(236,153)"/>
<path d="M0 0 C0.99 0.33 1.98 0.66 3 1 C3 4.3 3 7.6 3 11 C1.68 11 0.36 11 -1 11 C-1.02688151 9.35425434 -1.04634123 7.70838587 -1.0625 6.0625 C-1.07410156 5.14597656 -1.08570313 4.22945312 -1.09765625 3.28515625 C-1 1 -1 1 0 0 Z " fill="#4B4B4B" transform="translate(225,153)"/>
<path d="M0 0 C0.99 0.33 1.98 0.66 3 1 C3 4.3 3 7.6 3 11 C1.68 11 0.36 11 -1 11 C-1.02688151 9.35425434 -1.04634123 7.70838587 -1.0625 6.0625 C-1.07410156 5.14597656 -1.08570313 4.22945312 -1.09765625 3.28515625 C-1 1 -1 1 0 0 Z " fill="#494949" transform="translate(207,153)"/>
<path d="M0 0 C1.32 0.33 2.64 0.66 4 1 C4 3.97 4 6.94 4 10 C2.68 10.33 1.36 10.66 0 11 C0 7.37 0 3.74 0 0 Z " fill="#494949" transform="translate(199,153)"/>
<path d="M0 0 C0.99 0 1.98 0 3 0 C4.60725635 3.21451269 4.05748185 6.43612536 4 10 C2.68 10.33 1.36 10.66 0 11 C0 7.37 0 3.74 0 0 Z " fill="#464646" transform="translate(215,153)"/>
<path d="M0 0 C0.99 0 1.98 0 3 0 C3 3.96 3 7.92 3 12 C2.01 12 1.02 12 0 12 C0 8.04 0 4.08 0 0 Z " fill="#282828" transform="translate(251,226)"/>
<path d="M0 0 C0.99 0.33 1.98 0.66 3 1 C3 4.63 3 8.26 3 12 C2.01 12 1.02 12 0 12 C0 8.04 0 4.08 0 0 Z " fill="#313131" transform="translate(269,226)"/>
<path d="M0 0 C0.99 0.33 1.98 0.66 3 1 C3 4.63 3 8.26 3 12 C2.01 12 1.02 12 0 12 C0 8.04 0 4.08 0 0 Z " fill="#313131" transform="translate(236,171)"/>
<path d="M0 0 C0.66 0 1.32 0 2 0 C2 3.96 2 7.92 2 12 C1.01 12 0.02 12 -1 12 C-1.02687279 10.18757948 -1.04633715 8.37504767 -1.0625 6.5625 C-1.07410156 5.55316406 -1.08570313 4.54382813 -1.09765625 3.50390625 C-1 1 -1 1 0 0 Z " fill="#323232" transform="translate(259,171)"/>
<path d="M0 0 C0.99 0.33 1.98 0.66 3 1 C3 4.63 3 8.26 3 12 C2.01 12 1.02 12 0 12 C0 8.04 0 4.08 0 0 Z " fill="#222222" transform="translate(218,171)"/>
<path d="M0 0 C0.66 0.33 1.32 0.66 2 1 C2 4.63 2 8.26 2 12 C1.01 12 0.02 12 -1 12 C-1.02687279 10.18757948 -1.04633715 8.37504767 -1.0625 6.5625 C-1.07410156 5.55316406 -1.08570313 4.54382813 -1.09765625 3.50390625 C-1 1 -1 1 0 0 Z " fill="#1C1C1C" transform="translate(277,171)"/>
<path d="M0 0 C0.66 0.33 1.32 0.66 2 1 C2 4.63 2 8.26 2 12 C1.01 12 0.02 12 -1 12 C-1.02687279 10.18757948 -1.04633715 8.37504767 -1.0625 6.5625 C-1.07410156 5.55316406 -1.08570313 4.54382813 -1.09765625 3.50390625 C-1 1 -1 1 0 0 Z " fill="#1C1C1C" transform="translate(248,171)"/>
<path d="M0 0 C0.99 0 1.98 0 3 0 C3 3.63 3 7.26 3 11 C2.01 11 1.02 11 0 11 C0 7.37 0 3.74 0 0 Z " fill="#171717" transform="translate(244,208)"/>
<path d="M0 0 C0.99 0 1.98 0 3 0 C3 3.63 3 7.26 3 11 C2.01 11 1.02 11 0 11 C0 7.37 0 3.74 0 0 Z " fill="#252525" transform="translate(284,208)"/>
<path d="M0 0 C0.99 0 1.98 0 3 0 C3 3.63 3 7.26 3 11 C2.01 11 1.02 11 0 11 C0 7.37 0 3.74 0 0 Z " fill="#252525" transform="translate(255,208)"/>
<path d="M0 0 C0.99 0 1.98 0 3 0 C3 3.63 3 7.26 3 11 C2.01 11 1.02 11 0 11 C0 7.37 0 3.74 0 0 Z " fill="#252525" transform="translate(226,208)"/>
<path d="M0 0 C0.99 0 1.98 0 3 0 C3 3.63 3 7.26 3 11 C2.01 11 1.02 11 0 11 C0 7.37 0 3.74 0 0 Z " fill="#252525" transform="translate(222,190)"/>
<path d="M0 0 C0.99 0 1.98 0 3 0 C3 3.63 3 7.26 3 11 C2.01 11 1.02 11 0 11 C0 7.37 0 3.74 0 0 Z " fill="#252525" transform="translate(213,190)"/>
<path d="M0 0 C0.99 0 1.98 0 3 0 C3 3.63 3 7.26 3 11 C2.01 11 1.02 11 0 11 C0 7.37 0 3.74 0 0 Z " fill="#161616" transform="translate(197,190)"/>
<path d="M0 0 C0.99 0 1.98 0 3 0 C3 3.63 3 7.26 3 11 C2.01 11 1.02 11 0 11 C0 7.37 0 3.74 0 0 Z " fill="#181818" transform="translate(272,153)"/>
<path d="M0 0 C0.99 0 1.98 0 3 0 C3 3.63 3 7.26 3 11 C2.01 11 1.02 11 0 11 C0 7.37 0 3.74 0 0 Z " fill="#171717" transform="translate(256,153)"/>
<path d="M0 0 C0.66 0.33 1.32 0.66 2 1 C-1.63 4.63 -5.26 8.26 -9 12 C-9 7.8407692 -6.75316432 5.85455565 -4 3 C-1.6875 1.125 -1.6875 1.125 0 0 Z " fill="#575757" transform="translate(1004,155)"/>
<path d="M0 0 C0.66 0.33 1.32 0.66 2 1 C-0.97 3.97 -3.94 6.94 -7 10 C-7.66 9.67 -8.32 9.34 -9 9 C-8.06725891 7.87105124 -7.12859878 6.74699124 -6.1875 5.625 C-5.66542969 4.99851562 -5.14335937 4.37203125 -4.60546875 3.7265625 C-3 2 -3 2 0 0 Z " fill="#5D5D5D" transform="translate(190,102)"/>
<path d="M0 0 C0.66 0.33 1.32 0.66 2 1 C-0.97 3.97 -3.94 6.94 -7 10 C-7.33 9.34 -7.66 8.68 -8 8 C-3.375 2.25 -3.375 2.25 0 0 Z " fill="#515151" transform="translate(781,155)"/>
</svg>
